# Blender v2.91.0 OBJ File: ''
# www.blender.org
mtllib untitled.mtl
o Crane_Cube.006
v 1.101183 0.122117 0.731674
v 0.975415 0.013344 0.628390
v 1.295956 0.014461 0.516338
v -0.850149 0.158720 -0.188462
v -0.567076 0.023988 -0.333845
v -0.363660 0.016734 0.341416
v 0.129233 0.158481 -0.188465
v -0.153906 0.023887 -0.333846
v -0.351643 0.097800 -0.189112
v -0.351322 0.023661 -0.308156
v -0.351033 0.325595 0.065175
v -0.850107 0.325857 0.052113
v -0.350981 1.409284 0.699292
v 1.101129 -0.100095 0.729303
v -1.818270 0.017264 0.325106
v 0.756411 0.013373 0.630655
v 0.129166 -0.113917 -0.191371
v -0.351680 -0.053000 -0.190721
v -0.850216 -0.113676 -0.191369
v -0.850257 -0.285471 0.045590
v -0.345988 -0.285734 0.058653
v 0.329799 0.122458 -0.670017
v 0.329752 -0.070150 -0.672072
v 0.215325 0.024461 -0.396068
v -1.080588 0.228689 -0.668883
v -0.966186 0.024750 -0.396065
v 0.130361 0.325618 0.052110
v 0.140417 -0.285714 0.045587
v -0.351664 -1.383142 0.669497
v -1.080686 -0.170428 -0.673142
vt 0.488300 0.672800
vt 0.520200 0.713100
vt 0.413200 0.714500
vt 0.125800 0.911900
vt 0.094100 0.948000
vt 0.032000 0.947600
vt 0.626700 0.889800
vt 0.519700 0.848900
vt 0.595200 0.847800
vt 0.132100 0.435300
vt 0.138900 0.555600
vt 0.097200 0.435000
vt 0.845900 0.592700
vt 0.984700 0.479200
vt 0.976400 0.596800
vt 0.203600 0.436000
vt 0.203500 0.313900
vt 0.467900 0.439000
vt 0.489300 0.754200
vt 0.514500 0.950500
vt 0.880400 0.843700
vt 0.542600 0.388100
vt 0.583800 0.270300
vt 0.576700 0.388000
vt 0.792200 0.177500
vt 0.924800 0.058300
vt 0.922700 0.180400
vt 0.657600 0.508500
vt 0.585700 0.509700
vt 0.658300 0.385900
vt 0.540500 0.712800
vt 0.625500 0.805000
vt 0.125400 0.984400
vt 0.349900 0.705700
vt 0.372700 0.793200
vt 0.019300 0.610700
vt 0.467000 0.216100
vt 0.813200 0.038700
vt 0.790700 0.124200
vt 0.664900 0.937900
vt 0.623100 0.915700
vt 0.887500 0.889700
vt 0.887700 0.937900
vt 0.623100 0.960100
vt 0.887500 0.986100
vt 0.348200 0.806900
vt 0.463600 0.855000
vt 0.353700 0.854900
vt 0.988400 0.937900
vt 0.141600 0.310900
vt 0.200800 0.554400
vt 0.655600 0.267600
vt 0.963600 0.384700
vt 0.023600 0.246100
vt 0.470000 0.572700
vt 0.348100 0.903000
vt 0.426200 0.018000
vt 0.863100 0.797100
vt 0.045900 0.854700
vt 0.972000 0.718800
vt 0.924800 0.298200
vn 0.2055 -0.7883 0.5800
vn -0.3827 -0.9178 0.1054
vn 0.3808 -0.9183 0.1086
vn -0.1058 0.8440 -0.5259
vn -0.1240 0.9813 0.1471
vn 0.0228 0.5049 -0.8629
vn 0.2086 0.7689 0.6044
vn 0.4657 0.0240 0.8846
vn -0.5715 0.6125 0.5461
vn -0.1062 -0.8325 -0.5438
vn 0.1196 -0.9841 0.1316
vn 0.0550 -0.7673 -0.6389
vn 0.0074 -0.6930 0.7209
vn -0.5718 -0.6237 0.5329
vn 0.3812 0.9156 0.1281
vn -0.3823 0.9156 0.1250
vn 0.4657 -0.0431 0.8839
vn -0.0605 0.9928 0.1031
vn -0.0670 -0.9941 0.0857
vn 0.4923 0.8182 -0.2970
vn 0.4843 -0.8183 -0.3096
vn 0.0872 -0.7800 -0.6197
vn -0.2277 0.9594 -0.1666
vn -0.2293 -0.9560 -0.1827
vn -0.0547 0.9374 -0.3440
vn 0.1025 0.8445 -0.5257
vn -0.0234 0.5049 -0.8629
vn -0.0234 -0.4861 -0.8736
vn 0.1021 -0.8331 -0.5436
vn 0.2644 0.9643 0.0136
vn 0.2628 -0.9648 -0.0121
vn 0.0868 0.7972 -0.5974
vn -0.0540 0.9841 0.1692
vn -0.0570 -0.9880 0.1436
vn -0.3696 0.8247 -0.4282
vn -0.0540 -0.9328 -0.3562
vn -0.3736 -0.8113 -0.4498
vn -0.0574 -0.7685 -0.6372
vn -0.0573 0.7804 -0.6226
vn 0.0224 -0.4863 -0.8735
vn 0.0556 0.7804 -0.6229
vn 0.1201 0.9810 0.1526
vn -0.1245 -0.9842 0.1262
vn 0.0078 0.6694 0.7428
usemtl Material.001
s 1
f 1/1/1 2/2/1 3/3/1
f 4/4/2 5/5/2 6/6/2
f 7/7/3 6/8/3 8/9/3
f 9/10/4 7/11/4 10/12/4
f 6/13/5 7/14/5 9/15/5
f 11/16/6 12/17/6 13/18/6
f 14/19/7 3/3/7 2/2/7
f 4/4/8 15/20/8 5/5/8
f 7/7/9 8/9/9 16/21/9
f 10/22/10 17/23/10 18/24/10
f 6/25/11 19/26/11 18/27/11
f 20/28/12 19/29/12 18/24/12 21/30/12
f 2/2/13 1/1/13 16/31/13
f 8/9/14 17/32/14 16/21/14
f 6/8/15 17/32/15 8/9/15
f 5/5/16 19/33/16 6/6/16
f 15/20/17 19/33/17 5/5/17
f 7/11/18 16/34/18 1/35/18 22/36/18
f 17/23/19 23/37/19 14/38/19 16/39/19
f 2/40/20 14/41/20 23/42/20 24/43/20
f 1/44/21 2/40/21 24/43/21 22/45/21
f 25/46/22 10/47/22 26/48/22
f 10/12/23 7/11/23 22/36/23
f 10/22/24 23/37/24 17/23/24
f 24/43/25 23/42/25 10/49/25
f 4/50/26 9/10/26 10/12/26
f 27/51/27 11/16/27 13/18/27
f 28/52/28 29/53/28 21/30/28
f 19/29/29 10/22/29 18/24/29
f 4/50/30 10/12/30 25/54/30
f 10/22/31 19/29/31 30/55/31
f 10/47/32 30/56/32 26/48/32
f 4/50/33 25/54/33 15/57/33
f 19/29/34 15/58/34 30/55/34
f 26/48/35 30/56/35 15/59/35
f 22/45/36 24/43/36 10/49/36
f 25/46/37 26/48/37 15/59/37
f 17/23/38 28/52/38 21/30/38 18/24/38
f 7/11/39 9/10/39 11/16/39 27/51/39
f 29/53/40 20/28/40 21/30/40
f 9/10/41 4/50/41 12/17/41 11/16/41
f 4/60/42 6/13/42 9/15/42
f 17/61/43 6/25/43 18/27/43
f 14/19/44 2/2/44 16/31/44
